<mxGraphModel dx="1342" dy="1460" grid="1" gridSize="10" guides="1" tooltips="1" connect="1" arrows="1" fold="1" page="1" pageScale="1" pageWidth="850" pageHeight="1100" math="0" shadow="0"><root><mxCell id="0"/><mxCell id="1" parent="0"/><mxCell id="5GX48lG4IlyNQmGuxHLV-1" value="{{Package Diagram}}" style="html=1;whiteSpace=wrap;;fontSize=16;fontColor=#b2b2b2;fontStyle=1;align=center;spacingLeft=5.628;spacingRight=9.38;spacingTop=2.68;spacing=4;strokeOpacity=0;fillOpacity=0;rounded=1;absoluteArcSize=1;arcSize=9.6;fillColor=#ffffff;strokeWidth=1.2;" parent="1" vertex="1"><mxGeometry x="-162" y="-520" width="322" height="25" as="geometry"/></mxCell><mxCell id="5GX48lG4IlyNQmGuxHLV-2" value="" style="html=1;jettySize=18;fontSize=11;strokeColor=#b2b2b2;strokeOpacity=100;strokeWidth=1.2;rounded=1;arcSize=16;startArrow=none;endArrow=none;" parent="1" edge="1"><mxGeometry width="100" height="100" relative="1" as="geometry"><mxPoint x="-110" y="-470" as="sourcePoint"/><mxPoint x="108" y="-470" as="targetPoint"/></mxGeometry></mxCell><mxCell id="5GX48lG4IlyNQmGuxHLV-3" value="Joshua Carpentier" style="html=1;whiteSpace=wrap;;fontSize=9;fontColor=#b2b2b2;align=center;spacingLeft=5.628;spacingRight=9.38;spacingTop=2.68;spacing=4;strokeOpacity=0;fillOpacity=0;rounded=1;absoluteArcSize=1;arcSize=9.6;fillColor=#ffffff;strokeWidth=1.2;" parent="1" vertex="1"><mxGeometry x="-170" y="-495" width="322" height="12" as="geometry"/></mxCell><mxCell id="44_yn4rcSGjlJ2uaS7_E-45" value="&lt;font style=&quot;font-size: 10px&quot;&gt;Alert management &lt;br&gt;&lt;/font&gt;" style="shape=folder;xSize=90;align=left;spacingLeft=10;align=left;verticalAlign=top;spacingLeft=5;spacingTop=-4;tabWidth=103;tabHeight=26;tabPosition=left;html=1;strokeWidth=3;recursiveResize=0;fillColor=#FFA733;strokeColor=#000000;fontColor=#000000;" parent="1" vertex="1"><mxGeometry x="-155" y="-120" width="310" height="285" as="geometry"/></mxCell><mxCell id="44_yn4rcSGjlJ2uaS7_E-51" value="Alert Reciver" style="swimlane;fontStyle=0;childLayout=stackLayout;horizontal=1;startSize=26;fillColor=#FFA733;horizontalStack=0;resizeParent=1;resizeParentMax=0;resizeLast=0;collapsible=1;marginBottom=0;swimlaneFillColor=#ffffff;align=center;fontSize=11;labelBackgroundColor=none;" parent="44_yn4rcSGjlJ2uaS7_E-45" vertex="1"><mxGeometry x="40" y="75" width="100" height="40" as="geometry"/></mxCell><mxCell id="44_yn4rcSGjlJ2uaS7_E-65" value="Alert sender" style="swimlane;fontStyle=0;childLayout=stackLayout;horizontal=1;startSize=26;fillColor=#FFA733;horizontalStack=0;resizeParent=1;resizeParentMax=0;resizeLast=0;collapsible=1;marginBottom=0;swimlaneFillColor=#ffffff;align=center;fontSize=11;labelBackgroundColor=none;" parent="44_yn4rcSGjlJ2uaS7_E-45" vertex="1"><mxGeometry x="40" y="142.5" width="100" height="40" as="geometry"/></mxCell><mxCell id="44_yn4rcSGjlJ2uaS7_E-67" value="Radius detector" style="swimlane;fontStyle=0;childLayout=stackLayout;horizontal=1;startSize=26;fillColor=#FFA733;horizontalStack=0;resizeParent=1;resizeParentMax=0;resizeLast=0;collapsible=1;marginBottom=0;swimlaneFillColor=#ffffff;align=center;fontSize=11;labelBackgroundColor=none;" parent="44_yn4rcSGjlJ2uaS7_E-45" vertex="1"><mxGeometry x="180" y="75" width="100" height="40" as="geometry"/></mxCell><mxCell id="44_yn4rcSGjlJ2uaS7_E-69" value="Data Collector" style="swimlane;fontStyle=0;childLayout=stackLayout;horizontal=1;startSize=26;fillColor=#FFA733;horizontalStack=0;resizeParent=1;resizeParentMax=0;resizeLast=0;collapsible=1;marginBottom=0;swimlaneFillColor=#ffffff;align=center;fontSize=11;labelBackgroundColor=none;" parent="44_yn4rcSGjlJ2uaS7_E-45" vertex="1"><mxGeometry x="180" y="140" width="100" height="40" as="geometry"/></mxCell><mxCell id="M5yitNhHteYR75UmKYDk-55" value="Claimed Parking " style="swimlane;fontStyle=0;childLayout=stackLayout;horizontal=1;startSize=26;fillColor=#FFA733;horizontalStack=0;resizeParent=1;resizeParentMax=0;resizeLast=0;collapsible=1;marginBottom=0;swimlaneFillColor=#ffffff;align=center;fontSize=11;labelBackgroundColor=none;" parent="44_yn4rcSGjlJ2uaS7_E-45" vertex="1"><mxGeometry x="180" y="210" width="100" height="40" as="geometry"/></mxCell><mxCell id="44_yn4rcSGjlJ2uaS7_E-70" value="&lt;font style=&quot;font-size: 10px&quot;&gt;Location Validator&lt;/font&gt;" style="shape=folder;xSize=90;align=left;spacingLeft=10;align=left;verticalAlign=top;spacingLeft=5;spacingTop=-4;tabWidth=103;tabHeight=26;tabPosition=left;html=1;strokeWidth=3;recursiveResize=0;fillColor=#FFA733;gradientColor=none;" parent="1" vertex="1"><mxGeometry x="180" y="-390" width="270" height="190" as="geometry"/></mxCell><mxCell id="44_yn4rcSGjlJ2uaS7_E-72" value="Permission requester" style="swimlane;fontStyle=0;childLayout=stackLayout;horizontal=1;startSize=26;fillColor=#FFA733;horizontalStack=0;resizeParent=1;resizeParentMax=0;resizeLast=0;collapsible=1;marginBottom=0;swimlaneFillColor=#ffffff;align=center;fontSize=11;labelBackgroundColor=none;" parent="44_yn4rcSGjlJ2uaS7_E-70" vertex="1"><mxGeometry x="20" y="40" width="130" height="40" as="geometry"/></mxCell><mxCell id="44_yn4rcSGjlJ2uaS7_E-77" value="Location Checker" style="swimlane;fontStyle=0;childLayout=stackLayout;horizontal=1;startSize=26;fillColor=#FFA733;horizontalStack=0;resizeParent=1;resizeParentMax=0;resizeLast=0;collapsible=1;marginBottom=0;swimlaneFillColor=#ffffff;align=center;fontSize=11;labelBackgroundColor=none;" parent="44_yn4rcSGjlJ2uaS7_E-70" vertex="1"><mxGeometry x="20" y="100" width="130" height="40" as="geometry"/></mxCell><mxCell id="44_yn4rcSGjlJ2uaS7_E-82" value="Maps" style="shape=folder;xSize=90;align=left;spacingLeft=10;align=left;verticalAlign=top;spacingLeft=5;spacingTop=-4;tabWidth=103;tabHeight=26;tabPosition=left;html=1;strokeWidth=3;recursiveResize=0;fillColor=#FFA733;gradientColor=none;" parent="1" vertex="1"><mxGeometry x="600" y="-340" width="270" height="190" as="geometry"/></mxCell><mxCell id="44_yn4rcSGjlJ2uaS7_E-84" value="Google maps" style="swimlane;fontStyle=0;childLayout=stackLayout;horizontal=1;startSize=26;fillColor=#FFA733;horizontalStack=0;resizeParent=1;resizeParentMax=0;resizeLast=0;collapsible=1;marginBottom=0;swimlaneFillColor=#ffffff;align=center;fontSize=11;labelBackgroundColor=none;" parent="44_yn4rcSGjlJ2uaS7_E-82" vertex="1"><mxGeometry x="20" y="40" width="130" height="40" as="geometry"/></mxCell><mxCell id="44_yn4rcSGjlJ2uaS7_E-85" value="Google traffic" style="swimlane;fontStyle=0;childLayout=stackLayout;horizontal=1;startSize=26;fillColor=#FFA733;horizontalStack=0;resizeParent=1;resizeParentMax=0;resizeLast=0;collapsible=1;marginBottom=0;swimlaneFillColor=#ffffff;align=center;fontSize=11;labelBackgroundColor=none;" parent="44_yn4rcSGjlJ2uaS7_E-82" vertex="1"><mxGeometry x="20" y="100" width="130" height="40" as="geometry"/></mxCell><mxCell id="44_yn4rcSGjlJ2uaS7_E-86" value="&lt;font style=&quot;font-size: 10px&quot;&gt;Alert Feed&lt;/font&gt;" style="shape=folder;xSize=90;align=left;spacingLeft=10;align=left;verticalAlign=top;spacingLeft=5;spacingTop=-4;tabWidth=103;tabHeight=26;tabPosition=left;html=1;strokeWidth=3;recursiveResize=0;fillColor=#FFA733;strokeColor=#000000;fontColor=#000000;" parent="1" vertex="1"><mxGeometry x="-750" y="260" width="270" height="190" as="geometry"/></mxCell><mxCell id="44_yn4rcSGjlJ2uaS7_E-88" value="Alert Sorter" style="swimlane;fontStyle=0;childLayout=stackLayout;horizontal=1;startSize=26;fillColor=#FFA733;horizontalStack=0;resizeParent=1;resizeParentMax=0;resizeLast=0;collapsible=1;marginBottom=0;swimlaneFillColor=#ffffff;align=center;fontSize=11;labelBackgroundColor=none;" parent="44_yn4rcSGjlJ2uaS7_E-86" vertex="1"><mxGeometry x="20" y="40" width="130" height="40" as="geometry"/></mxCell><mxCell id="M5yitNhHteYR75UmKYDk-1" value="Payment " style="shape=folder;xSize=90;align=left;spacingLeft=10;align=left;verticalAlign=top;spacingLeft=5;spacingTop=-4;tabWidth=103;tabHeight=26;tabPosition=left;html=1;strokeWidth=3;recursiveResize=0;fillColor=#FFA733;gradientColor=none;" parent="1" vertex="1"><mxGeometry x="-9" y="320" width="270" height="210" as="geometry"/></mxCell><mxCell id="M5yitNhHteYR75UmKYDk-3" value="Subscription Type" style="swimlane;fontStyle=0;childLayout=stackLayout;horizontal=1;startSize=26;fillColor=#FFA733;horizontalStack=0;resizeParent=1;resizeParentMax=0;resizeLast=0;collapsible=1;marginBottom=0;swimlaneFillColor=#ffffff;align=center;fontSize=11;labelBackgroundColor=none;" parent="M5yitNhHteYR75UmKYDk-1" vertex="1"><mxGeometry x="20" y="40" width="130" height="40" as="geometry"/></mxCell><mxCell id="M5yitNhHteYR75UmKYDk-4" value="Payment Process" style="swimlane;fontStyle=0;childLayout=stackLayout;horizontal=1;startSize=26;fillColor=#FFA733;horizontalStack=0;resizeParent=1;resizeParentMax=0;resizeLast=0;collapsible=1;marginBottom=0;swimlaneFillColor=#ffffff;align=center;fontSize=11;labelBackgroundColor=none;" parent="M5yitNhHteYR75UmKYDk-1" vertex="1"><mxGeometry x="20" y="90" width="130" height="40" as="geometry"/></mxCell><mxCell id="8M3P62N_iAqZKpTILt6F-7" value="Cash back" style="swimlane;fontStyle=0;childLayout=stackLayout;horizontal=1;startSize=26;fillColor=#FFA733;horizontalStack=0;resizeParent=1;resizeParentMax=0;resizeLast=0;collapsible=1;marginBottom=0;swimlaneFillColor=#ffffff;align=center;fontSize=11;labelBackgroundColor=none;" parent="M5yitNhHteYR75UmKYDk-1" vertex="1"><mxGeometry x="20" y="140" width="130" height="40" as="geometry"/></mxCell><mxCell id="M5yitNhHteYR75UmKYDk-5" value="&lt;font style=&quot;font-size: 10px&quot;&gt;Reward Program&lt;/font&gt;" style="shape=folder;xSize=90;align=left;spacingLeft=10;align=left;verticalAlign=top;spacingLeft=5;spacingTop=-4;tabWidth=103;tabHeight=26;tabPosition=left;html=1;strokeWidth=3;recursiveResize=0;fillColor=#FFA733;gradientColor=none;" parent="1" vertex="1"><mxGeometry x="430" y="380" width="270" height="190" as="geometry"/></mxCell><mxCell id="M5yitNhHteYR75UmKYDk-7" value="Wait time converter" style="swimlane;fontStyle=0;childLayout=stackLayout;horizontal=1;startSize=26;fillColor=#FFA733;horizontalStack=0;resizeParent=1;resizeParentMax=0;resizeLast=0;collapsible=1;marginBottom=0;swimlaneFillColor=#ffffff;align=center;fontSize=11;labelBackgroundColor=none;" parent="M5yitNhHteYR75UmKYDk-5" vertex="1"><mxGeometry x="20" y="40" width="130" height="40" as="geometry"/></mxCell><mxCell id="M5yitNhHteYR75UmKYDk-12" value="Alert traffic" style="shape=folder;xSize=90;align=left;spacingLeft=10;align=left;verticalAlign=top;spacingLeft=5;spacingTop=-4;tabWidth=103;tabHeight=26;tabPosition=left;html=1;strokeWidth=3;recursiveResize=0;fillColor=#FFA733;gradientColor=none;" parent="1" vertex="1"><mxGeometry x="-600" y="-435" width="270" height="190" as="geometry"/></mxCell><mxCell id="M5yitNhHteYR75UmKYDk-16" value="Alert creator" style="swimlane;fontStyle=0;childLayout=stackLayout;horizontal=1;startSize=26;fillColor=#FFA733;horizontalStack=0;resizeParent=1;resizeParentMax=0;resizeLast=0;collapsible=1;marginBottom=0;swimlaneFillColor=#ffffff;align=center;fontSize=11;labelBackgroundColor=none;" parent="M5yitNhHteYR75UmKYDk-12" vertex="1"><mxGeometry x="20" y="50" width="100" height="40" as="geometry"/></mxCell><mxCell id="M5yitNhHteYR75UmKYDk-21" value="Alert router" style="swimlane;fontStyle=0;childLayout=stackLayout;horizontal=1;startSize=26;fillColor=#FFA733;horizontalStack=0;resizeParent=1;resizeParentMax=0;resizeLast=0;collapsible=1;marginBottom=0;swimlaneFillColor=#ffffff;align=center;fontSize=11;labelBackgroundColor=none;" parent="M5yitNhHteYR75UmKYDk-12" vertex="1"><mxGeometry x="20" y="120" width="100" height="40" as="geometry"/></mxCell><mxCell id="M5yitNhHteYR75UmKYDk-58" value="Alert Searcher" style="swimlane;fontStyle=0;childLayout=stackLayout;horizontal=1;startSize=26;fillColor=#FFA733;horizontalStack=0;resizeParent=1;resizeParentMax=0;resizeLast=0;collapsible=1;marginBottom=0;swimlaneFillColor=#ffffff;align=center;fontSize=11;labelBackgroundColor=none;" parent="M5yitNhHteYR75UmKYDk-12" vertex="1"><mxGeometry x="152" y="120" width="100" height="40" as="geometry"/></mxCell><mxCell id="M5yitNhHteYR75UmKYDk-22" style="edgeStyle=orthogonalEdgeStyle;rounded=0;orthogonalLoop=1;jettySize=auto;html=1;exitX=0;exitY=0.5;exitDx=0;exitDy=0;entryX=1;entryY=0.75;entryDx=0;entryDy=0;dashed=1;strokeWidth=2;" parent="1" source="44_yn4rcSGjlJ2uaS7_E-77" target="M5yitNhHteYR75UmKYDk-16" edge="1"><mxGeometry relative="1" as="geometry"/></mxCell><mxCell id="M5yitNhHteYR75UmKYDk-24" value="Use" style="endArrow=classic;endSize=12;dashed=1;html=1;strokeWidth=2;exitX=0.75;exitY=1;exitDx=0;exitDy=0;endFill=1;" parent="1" source="M5yitNhHteYR75UmKYDk-21" target="44_yn4rcSGjlJ2uaS7_E-51" edge="1"><mxGeometry width="160" relative="1" as="geometry"><mxPoint x="320" y="350" as="sourcePoint"/><mxPoint x="480" y="350" as="targetPoint"/><Array as="points"><mxPoint x="-570" y="-180"/><mxPoint x="-280" y="-180"/></Array></mxGeometry></mxCell><mxCell id="M5yitNhHteYR75UmKYDk-34" style="edgeStyle=orthogonalEdgeStyle;rounded=0;orthogonalLoop=1;jettySize=auto;html=1;entryX=-0.004;entryY=0.529;entryDx=0;entryDy=0;entryPerimeter=0;dashed=1;endArrow=classic;endFill=1;strokeWidth=2;" parent="1" source="M5yitNhHteYR75UmKYDk-30" target="44_yn4rcSGjlJ2uaS7_E-45" edge="1"><mxGeometry relative="1" as="geometry"/></mxCell><mxCell id="M5yitNhHteYR75UmKYDk-30" value="&lt;font style=&quot;font-size: 10px&quot;&gt;System down Alert&amp;nbsp; &lt;/font&gt;" style="shape=folder;xSize=90;align=left;spacingLeft=10;align=left;verticalAlign=top;spacingLeft=5;spacingTop=-4;tabWidth=103;tabHeight=26;tabPosition=left;html=1;strokeWidth=3;recursiveResize=0;fillColor=#FFA733;gradientColor=none;" parent="1" vertex="1"><mxGeometry x="-710" y="-96.5" width="270" height="190" as="geometry"/></mxCell><mxCell id="M5yitNhHteYR75UmKYDk-32" value="System checker" style="swimlane;fontStyle=0;childLayout=stackLayout;horizontal=1;startSize=26;fillColor=#FFA733;horizontalStack=0;resizeParent=1;resizeParentMax=0;resizeLast=0;collapsible=1;marginBottom=0;swimlaneFillColor=#ffffff;align=center;fontSize=11;labelBackgroundColor=none;" parent="M5yitNhHteYR75UmKYDk-30" vertex="1"><mxGeometry x="20" y="40" width="130" height="40" as="geometry"/></mxCell><mxCell id="M5yitNhHteYR75UmKYDk-37" value="&lt;font style=&quot;font-size: 10px&quot;&gt;Statistics&lt;/font&gt;" style="shape=folder;xSize=90;align=left;spacingLeft=10;align=left;verticalAlign=top;spacingLeft=5;spacingTop=-4;tabWidth=103;tabHeight=26;tabPosition=left;html=1;strokeWidth=3;recursiveResize=0;fillColor=#FFA733;gradientColor=none;" parent="1" vertex="1"><mxGeometry x="465" y="22.5" width="270" height="190" as="geometry"/></mxCell><mxCell id="M5yitNhHteYR75UmKYDk-39" value="Stat Collector" style="swimlane;fontStyle=0;childLayout=stackLayout;horizontal=1;startSize=26;fillColor=#FFA733;horizontalStack=0;resizeParent=1;resizeParentMax=0;resizeLast=0;collapsible=1;marginBottom=0;swimlaneFillColor=#ffffff;align=center;fontSize=11;labelBackgroundColor=none;" parent="M5yitNhHteYR75UmKYDk-37" vertex="1"><mxGeometry x="20" y="40" width="130" height="40" as="geometry"/></mxCell><mxCell id="M5yitNhHteYR75UmKYDk-59" value="Stats" style="swimlane;fontStyle=0;childLayout=stackLayout;horizontal=1;startSize=26;fillColor=#FFA733;horizontalStack=0;resizeParent=1;resizeParentMax=0;resizeLast=0;collapsible=1;marginBottom=0;swimlaneFillColor=#ffffff;align=center;fontSize=11;labelBackgroundColor=none;" parent="M5yitNhHteYR75UmKYDk-37" vertex="1"><mxGeometry x="20" y="95" width="130" height="40" as="geometry"/></mxCell><mxCell id="M5yitNhHteYR75UmKYDk-44" style="edgeStyle=orthogonalEdgeStyle;rounded=0;orthogonalLoop=1;jettySize=auto;html=1;exitX=1;exitY=0.5;exitDx=0;exitDy=0;entryX=0;entryY=0.5;entryDx=0;entryDy=0;dashed=1;endArrow=classic;endFill=1;strokeWidth=2;" parent="1" source="44_yn4rcSGjlJ2uaS7_E-77" target="44_yn4rcSGjlJ2uaS7_E-84" edge="1"><mxGeometry relative="1" as="geometry"><Array as="points"><mxPoint x="330" y="-280"/></Array></mxGeometry></mxCell><mxCell id="M5yitNhHteYR75UmKYDk-45" style="edgeStyle=orthogonalEdgeStyle;rounded=0;orthogonalLoop=1;jettySize=auto;html=1;exitX=0.5;exitY=1;exitDx=0;exitDy=0;entryX=1;entryY=0.5;entryDx=0;entryDy=0;dashed=1;startArrow=none;startFill=0;endArrow=classic;endFill=1;strokeWidth=2;" parent="1" source="44_yn4rcSGjlJ2uaS7_E-77" target="44_yn4rcSGjlJ2uaS7_E-67" edge="1"><mxGeometry relative="1" as="geometry"/></mxCell><mxCell id="M5yitNhHteYR75UmKYDk-46" style="edgeStyle=orthogonalEdgeStyle;rounded=0;orthogonalLoop=1;jettySize=auto;html=1;exitX=0.5;exitY=1;exitDx=0;exitDy=0;entryX=1;entryY=0.75;entryDx=0;entryDy=0;dashed=1;startArrow=none;startFill=0;endArrow=classic;endFill=1;strokeWidth=2;" parent="1" source="44_yn4rcSGjlJ2uaS7_E-85" target="44_yn4rcSGjlJ2uaS7_E-67" edge="1"><mxGeometry relative="1" as="geometry"/></mxCell><mxCell id="M5yitNhHteYR75UmKYDk-48" value="&amp;lt;&amp;lt;access&amp;gt;&amp;gt;" style="edgeStyle=none;html=1;endArrow=none;endSize=12;dashed=1;verticalAlign=bottom;strokeWidth=2;startArrow=classic;startFill=1;endFill=0;entryX=0;entryY=0.75;entryDx=0;entryDy=0;" parent="1" source="44_yn4rcSGjlJ2uaS7_E-45" target="M5yitNhHteYR75UmKYDk-39" edge="1"><mxGeometry x="0.5267" y="-1" width="160" relative="1" as="geometry"><mxPoint x="40" y="230" as="sourcePoint"/><mxPoint x="40" y="200" as="targetPoint"/><mxPoint as="offset"/></mxGeometry></mxCell><mxCell id="M5yitNhHteYR75UmKYDk-57" style="edgeStyle=orthogonalEdgeStyle;rounded=0;orthogonalLoop=1;jettySize=auto;html=1;entryX=0.622;entryY=0.132;entryDx=0;entryDy=0;entryPerimeter=0;dashed=1;startArrow=none;startFill=0;endArrow=classic;endFill=1;strokeWidth=2;" parent="1" target="44_yn4rcSGjlJ2uaS7_E-86" edge="1"><mxGeometry relative="1" as="geometry"><mxPoint x="-120" y="42" as="sourcePoint"/><Array as="points"><mxPoint x="-130" y="42"/><mxPoint x="-130" y="162"/><mxPoint x="-582" y="162"/></Array></mxGeometry></mxCell><mxCell id="M5yitNhHteYR75UmKYDk-62" style="edgeStyle=orthogonalEdgeStyle;rounded=0;orthogonalLoop=1;jettySize=auto;html=1;exitX=0;exitY=0.5;exitDx=0;exitDy=0;entryX=1.007;entryY=0.641;entryDx=0;entryDy=0;dashed=1;startArrow=none;startFill=0;endArrow=classic;endFill=1;strokeWidth=2;entryPerimeter=0;" parent="1" source="M5yitNhHteYR75UmKYDk-7" target="M5yitNhHteYR75UmKYDk-1" edge="1"><mxGeometry relative="1" as="geometry"/></mxCell><mxCell id="M5yitNhHteYR75UmKYDk-63" style="edgeStyle=orthogonalEdgeStyle;rounded=0;orthogonalLoop=1;jettySize=auto;html=1;entryX=0.765;entryY=0.133;entryDx=0;entryDy=0;entryPerimeter=0;dashed=1;startArrow=classic;startFill=1;endArrow=none;endFill=0;strokeWidth=2;" parent="1" source="M5yitNhHteYR75UmKYDk-37" target="M5yitNhHteYR75UmKYDk-5" edge="1"><mxGeometry relative="1" as="geometry"/></mxCell><mxCell id="2gSgiH3oau0lLc-4De5X-1" style="edgeStyle=orthogonalEdgeStyle;rounded=0;orthogonalLoop=1;jettySize=auto;html=1;entryX=1;entryY=0.75;entryDx=0;entryDy=0;dashed=1;strokeWidth=2;endArrow=classic;endFill=1;" parent="1" target="M5yitNhHteYR75UmKYDk-55" edge="1"><mxGeometry relative="1" as="geometry"><Array as="points"><mxPoint x="330" y="120"/></Array><mxPoint x="310" y="-250" as="sourcePoint"/></mxGeometry></mxCell><mxCell id="-cQAOgoue1Z_B3o55hcX-1" value="Text" style="text;html=1;align=center;verticalAlign=middle;resizable=0;points=[];autosize=1;" parent="1" vertex="1"><mxGeometry x="-100" y="-410" width="40" height="20" as="geometry"/></mxCell></root></mxGraphModel>